<svg width="1200" height="1200" viewBox="0 0 1200 1200" fill="none" xmlns="http://www.w3.org/2000/svg">
  <defs>
    <filter id="grain" x="-20%" y="-20%" width="140%" height="140%">
      <feTurbulence type="fractalNoise" baseFrequency=".018 .035" numOctaves="5" seed="29"/>
      <feColorMatrix type="saturate" values=".72"/>
      <feBlend mode="multiply" in2="SourceGraphic"/>
    </filter>
    <clipPath id="disc"><circle cx="600" cy="600" r="495"/></clipPath>
    <radialGradient id="base" cx="0" cy="0" r="1" gradientUnits="userSpaceOnUse" gradientTransform="translate(360 310) rotate(43) scale(760)">
      <stop stop-color="#FFE6B8"/>
      <stop offset=".22" stop-color="#F89E58"/>
      <stop offset=".56" stop-color="#B94E36"/>
      <stop offset=".82" stop-color="#3D1824"/>
      <stop offset="1" stop-color="#05040A"/>
    </radialGradient>
    <radialGradient id="light" cx="0" cy="0" r="1" gradientUnits="userSpaceOnUse" gradientTransform="translate(365 315) rotate(40) scale(710)">
      <stop offset=".12" stop-color="white" stop-opacity=".56"/>
      <stop offset=".42" stop-color="white" stop-opacity=".05"/>
      <stop offset=".78" stop-color="#05040A" stop-opacity=".12"/>
      <stop offset="1" stop-color="#010205" stop-opacity=".92"/>
    </radialGradient>
    <filter id="glow" x="-45%" y="-45%" width="190%" height="190%"><feGaussianBlur stdDeviation="28"/></filter>
  </defs>
  <circle cx="600" cy="600" r="505" fill="#F06D45" opacity=".18" filter="url(#glow)"/>
  <g clip-path="url(#disc)">
    <circle cx="600" cy="600" r="495" fill="url(#base)"/>
    <g filter="url(#grain)" opacity=".95">
      <path d="M233 353c103-66 269-76 380-28 72 32 78 77 13 95-102 28-222-27-338 28-54 26-101-50-55-95Z" fill="#3B1720" opacity=".58"/>
      <path d="M410 520c123-47 265-32 382 31 64 34 60 85-9 99-143 28-247-65-389-21-91 28-86-72 16-109Z" fill="#5E2120" opacity=".52"/>
      <path d="M686 716c93-25 196-9 281 39 53 30 48 78-9 92-112 28-215-45-329-15-72 19-49-89 57-116Z" fill="#2C1119" opacity=".55"/>
      <path d="M245 761c126-35 265-25 410 28" stroke="#FFD0A3" stroke-opacity=".32" stroke-width="34" stroke-linecap="round"/>
      <path d="M490 305c86-24 170-28 252-11" stroke="#FFE1BC" stroke-opacity=".35" stroke-width="28" stroke-linecap="round"/>
      <path d="M302 865c91 48 199 77 326 86" stroke="#F7B078" stroke-opacity=".28" stroke-width="22" stroke-linecap="round"/>
      <path d="M500 146c53-19 104-14 152 16 36 22 24 58-28 72-48 13-103 0-150-31-34-23-25-43 26-57Z" fill="#DCE8F5" opacity=".82"/>
    </g>
    <circle cx="600" cy="600" r="495" fill="url(#light)"/>
  </g>
</svg>
